<svg width="500" height="500" viewBox="0 0 500 500" fill="none" xmlns="http://www.w3.org/2000/svg">
<rect width="500" height="500" fill="white"/>
<circle cx="250" cy="250" r="234" fill="url(#paint0_linear_3115_2793)"/>
<path d="M351.934 270.531C345.868 270.53 339.894 271.999 334.525 274.81C329.157 277.621 324.556 281.691 321.119 286.668C317.682 291.645 315.513 297.38 314.798 303.378C314.083 309.376 314.845 315.458 317.016 321.097L277.086 344.546C273.598 340.475 269.268 337.202 264.392 334.95C259.516 332.699 254.209 331.522 248.835 331.501C243.461 331.479 238.145 332.614 233.251 334.827C228.358 337.04 224.001 340.278 220.48 344.322L180.325 321.131C182.286 316.046 183.103 310.595 182.718 305.161C182.332 299.728 180.755 294.445 178.096 289.685C175.437 284.925 171.761 280.804 167.329 277.613C162.896 274.421 157.814 272.238 152.442 271.215V229.601C157.883 228.566 163.026 226.341 167.499 223.085C171.971 219.83 175.661 215.625 178.302 210.775C180.943 205.926 182.469 200.552 182.769 195.043C183.069 189.534 182.136 184.028 180.038 178.922L220.396 155.63C223.907 159.689 228.258 162.944 233.15 165.172C238.042 167.401 243.36 168.55 248.739 168.542C254.119 168.533 259.433 167.367 264.318 165.123C269.203 162.879 273.543 159.61 277.041 155.54L317.349 178.849C313.772 187.45 313.544 197.071 316.71 205.83C319.877 214.589 326.209 221.858 334.47 226.215C342.732 230.572 352.328 231.704 361.383 229.391C370.438 227.078 378.301 221.484 383.436 213.705C388.57 205.925 390.607 196.519 389.148 187.323C387.689 178.128 382.838 169.805 375.545 163.981C368.252 158.157 359.04 155.251 349.71 155.831C340.38 156.411 331.602 160.435 325.092 167.116L284.053 143.381C285.994 137.765 286.558 131.769 285.699 125.892C284.84 120.015 282.583 114.427 279.115 109.596C275.648 104.764 271.071 100.827 265.766 98.1143C260.46 95.4015 254.581 93.9911 248.617 94.0005C242.653 94.01 236.778 95.4391 231.482 98.1687C226.185 100.898 221.621 104.849 218.169 109.692C214.717 114.535 212.477 120.13 211.637 126.009C210.797 131.889 211.381 137.884 213.339 143.493L172.322 167.167C168.241 162.95 163.218 159.752 157.662 157.831C152.107 155.91 146.174 155.321 140.347 156.112C134.52 156.902 128.962 159.05 124.125 162.381C119.287 165.712 115.307 170.131 112.507 175.281C109.706 180.432 108.165 186.167 108.008 192.021C107.85 197.876 109.082 203.684 111.602 208.976C114.122 214.268 117.859 218.893 122.511 222.477C127.162 226.06 132.597 228.501 138.373 229.601V271.215C132.554 272.313 127.08 274.771 122.402 278.387C117.723 282.003 113.973 286.673 111.461 292.014C108.949 297.355 107.746 303.213 107.951 309.108C108.157 315.002 109.764 320.763 112.642 325.918C115.52 331.072 119.586 335.473 124.505 338.757C129.424 342.042 135.056 344.116 140.937 344.809C146.818 345.503 152.781 344.796 158.334 342.746C163.887 340.697 168.873 337.364 172.88 333.021L213.367 356.414C211.39 362.019 210.788 368.014 211.611 373.899C212.434 379.783 214.658 385.386 218.097 390.24C221.537 395.095 226.092 399.059 231.383 401.804C236.675 404.548 242.548 405.993 248.514 406.017C254.48 406.041 260.365 404.644 265.678 401.943C270.992 399.241 275.579 395.313 279.058 390.487C282.537 385.661 284.807 380.076 285.678 374.198C286.549 368.321 285.995 362.321 284.064 356.7L324.428 333.021C328.639 337.574 333.923 341.01 339.803 343.019C345.682 345.028 351.972 345.545 358.103 344.525C364.234 343.505 370.012 340.979 374.917 337.176C379.821 333.373 383.697 328.413 386.193 322.744C388.688 317.074 389.726 310.875 389.212 304.706C388.697 298.537 386.647 292.594 383.247 287.412C379.846 282.23 375.202 277.974 369.735 275.029C364.268 272.084 358.15 270.542 351.934 270.542V270.531ZM351.934 169.769C356.549 169.769 361.06 171.132 364.897 173.685C368.734 176.238 371.725 179.867 373.491 184.113C375.257 188.359 375.719 193.031 374.818 197.538C373.918 202.046 371.696 206.186 368.433 209.435C365.17 212.685 361.012 214.898 356.486 215.795C351.96 216.691 347.268 216.231 343.005 214.472C338.741 212.714 335.097 209.735 332.533 205.914C329.97 202.093 328.601 197.601 328.601 193.005C328.609 186.845 331.069 180.939 335.443 176.583C339.817 172.227 345.748 169.777 351.934 169.769V169.769ZM248.668 108.037C252.738 108.035 256.737 109.093 260.269 111.108C263.8 113.122 266.741 116.021 268.799 119.517C270.857 123.014 271.96 126.986 271.999 131.038C272.038 135.091 271.012 139.083 269.021 142.618L268.937 142.742C268.909 142.792 268.886 142.848 268.858 142.899C266.808 146.428 263.862 149.358 260.315 151.394C256.768 153.429 252.745 154.5 248.651 154.497C244.557 154.495 240.536 153.419 236.991 151.379C233.447 149.338 230.504 146.405 228.459 142.873C226.413 139.341 225.337 135.335 225.339 131.258C225.34 127.181 226.419 123.177 228.467 119.646C230.515 116.116 233.46 113.185 237.006 111.147C240.552 109.109 244.574 108.036 248.668 108.037V108.037ZM122.069 193.005C122.069 188.41 123.437 183.917 126.001 180.096C128.565 176.275 132.209 173.297 136.473 171.538C140.736 169.779 145.428 169.319 149.954 170.216C154.48 171.112 158.638 173.325 161.901 176.575C165.164 179.824 167.386 183.965 168.286 188.472C169.187 192.979 168.725 197.651 166.959 201.897C165.193 206.143 162.202 209.772 158.365 212.325C154.528 214.878 150.017 216.241 145.402 216.241C139.216 216.234 133.285 213.783 128.911 209.427C124.537 205.071 122.076 199.165 122.069 193.005V193.005ZM145.402 331.024C139.214 331.034 133.275 328.595 128.892 324.245C124.51 319.894 122.042 313.987 122.032 307.825C122.023 301.662 124.472 295.748 128.841 291.384C133.209 287.019 139.14 284.562 145.329 284.552H145.475C151.663 284.562 157.594 287.019 161.963 291.384C166.332 295.748 168.781 301.662 168.771 307.825C168.762 313.987 166.294 319.894 161.911 324.245C157.529 328.595 151.59 331.034 145.402 331.024V331.024ZM248.668 391.994C244.58 392 240.563 390.936 237.019 388.908C233.475 386.881 230.528 383.961 228.475 380.441C226.421 376.922 225.332 372.927 225.318 368.856C225.304 364.786 226.364 360.783 228.393 357.25C228.427 357.194 228.472 357.143 228.506 357.081C228.54 357.02 228.602 356.902 228.647 356.812C230.744 353.33 233.722 350.457 237.282 348.478C240.843 346.5 244.862 345.485 248.939 345.535C253.016 345.586 257.009 346.699 260.519 348.766C264.029 350.832 266.934 353.778 268.944 357.31C270.955 360.843 272 364.839 271.976 368.899C271.953 372.959 270.861 376.943 268.809 380.452C266.758 383.961 263.819 386.873 260.285 388.898C256.751 390.924 252.745 391.991 248.668 391.994ZM351.934 331.024C347.319 331.024 342.808 329.662 338.971 327.109C335.135 324.556 332.144 320.927 330.378 316.682C328.612 312.436 328.149 307.765 329.049 303.257C329.949 298.75 332.171 294.61 335.433 291.36C338.696 288.11 342.853 285.897 347.378 285C351.904 284.102 356.595 284.562 360.859 286.32C365.123 288.077 368.767 291.055 371.332 294.875C373.896 298.696 375.266 303.187 375.267 307.783C375.261 313.944 372.801 319.851 368.426 324.209C364.052 328.566 358.121 331.017 351.934 331.024V331.024Z" fill="#F9F6F1"/>
<path d="M312.83 218.961C312.829 217.73 312.504 216.52 311.886 215.454C311.268 214.388 310.38 213.503 309.31 212.887L254.354 181.294L254.292 181.266C254.14 181.176 253.976 181.103 253.819 181.025L253.65 180.946C253.464 180.862 253.273 180.795 253.087 180.728L252.991 180.694C252.296 180.471 251.57 180.357 250.84 180.357H250.772C250.548 180.357 250.324 180.369 250.102 180.391H250.034C249.813 180.413 249.593 180.447 249.375 180.492L249.28 180.52C249.071 180.565 248.868 180.621 248.671 180.683L248.339 180.806C247.83 180.996 247.345 181.242 246.892 181.541C243.479 183.408 232.423 189.768 192.223 212.948C191.155 213.563 190.269 214.448 189.653 215.512C189.037 216.576 188.714 217.783 188.714 219.011V282.213C188.714 282.258 188.714 282.297 188.714 282.337C188.714 282.583 188.714 282.824 188.765 283.071C188.765 283.183 188.804 283.29 188.821 283.402C188.838 283.514 188.883 283.722 188.917 283.879C188.951 284.036 188.985 284.126 189.024 284.249C189.064 284.372 189.114 284.518 189.159 284.653C189.204 284.787 189.255 284.905 189.311 285.029C189.368 285.152 189.43 285.275 189.497 285.399C189.834 286.067 190.277 286.677 190.809 287.205C190.86 287.255 190.916 287.294 190.973 287.345C191.142 287.502 191.316 287.659 191.502 287.805L191.795 287.995C191.941 288.096 192.088 288.203 192.246 288.293L247.331 319.79C248.396 320.398 249.603 320.718 250.831 320.718C252.059 320.718 253.266 320.398 254.331 319.79L309.236 288.472H309.265C309.327 288.439 309.377 288.394 309.434 288.36C309.636 288.237 309.839 288.108 310.03 287.967L310.25 287.777C310.413 287.642 310.571 287.513 310.723 287.362C310.875 287.21 310.909 287.16 310.999 287.059C311.089 286.958 311.23 286.812 311.331 286.677C311.501 286.459 311.657 286.23 311.799 285.993L311.855 285.909V285.859C311.986 285.632 312.103 285.398 312.204 285.158C312.238 285.09 312.261 285.017 312.289 284.944C312.369 284.746 312.439 284.544 312.497 284.339C312.497 284.271 312.537 284.204 312.559 284.131C312.629 283.869 312.681 283.603 312.717 283.335C312.717 283.335 312.717 283.335 312.717 283.335C312.755 283.05 312.774 282.764 312.773 282.477C312.773 282.477 312.773 282.432 312.773 282.409L312.83 218.961ZM298.75 270.177L257.874 246.51V199.488L298.75 222.988V270.177ZM243.794 199.488V246.51L202.788 270.065V223.094C216.35 215.27 233.172 205.573 243.794 199.488ZM250.834 305.629L209.856 282.196L250.817 258.641L291.699 282.314L250.834 305.629Z" fill="#F9F6F1"/>
<defs>
<linearGradient id="paint0_linear_3115_2793" x1="154.45" y1="150.184" x2="350.509" y2="453.819" gradientUnits="userSpaceOnUse">
<stop stop-color="#19113E"/>
<stop offset="1" stop-color="#041D75"/>
</linearGradient>
</defs>
</svg>